<svg t="1688800522849" class="icon" viewBox="0 0 1024 1024" version="1.1" xmlns="http://www.w3.org/2000/svg" p-id="1813" width="200" height="200"><path d="M931.04 49.28H97.76a80 80 0 0 0-80 80v612a80 80 0 0 0 80 80h406.72V960H284.32a16 16 0 0 0 0 32h460.16a16 16 0 0 0 0-32h-208v-138.08h394.56a80 80 0 0 0 80-80V129.92a80 80 0 0 0-80-80.64z m48 692a48 48 0 0 1-48 48H97.76a48 48 0 0 1-48-48V129.92a48 48 0 0 1 48-48h833.28a48 48 0 0 1 48 48z" fill="#3FA9F5" p-id="1814"></path><path d="M804.8 272c-24.32-42.08-96.96-40.32-181.28-14.56-19.68-85.92-54.4-149.6-103.04-149.6s-83.36 64-103.2 149.44a461.6 461.6 0 0 0-48-12.16c-69.28-13.76-115.52-4.48-133.6 26.88s-3.04 76 43.52 129.12c10.24 11.52 21.76 23.2 34.24 34.88-12.48 11.68-24 23.52-34.24 35.04-46.56 53.12-61.6 97.76-43.52 129.12 13.28 23.2 41.12 33.12 77.44 33.12a368 368 0 0 0 103.68-18.72c19.68 85.92 54.56 149.76 103.2 149.76s83.52-64 103.2-149.76a368 368 0 0 0 103.68 18.72c36.16 0 64-10.08 77.44-33.12 24.16-42.08-13.44-104-78.08-164.16 65.12-60.32 102.72-122.24 78.56-164zM263.84 583.84c-9.92-17.28 5.28-52.48 40-92a460.96 460.96 0 0 1 34.08-34.88 749.12 749.12 0 0 0 63.2 48c2.08 26.88 5.28 53.28 9.76 78.24-76.64 23.68-133.76 23.68-147.04 0.64zM398.88 464c-12.8-9.44-24.96-18.88-36.48-28.48q17.28-14.24 36.48-28.32v28.32c0 9.28-0.16 19.04 0 28.48z m2.24-97.28a749.12 749.12 0 0 0-63.2 48A460.96 460.96 0 0 1 304 379.68c-34.72-39.52-49.92-74.72-40-92s48-21.76 99.68-11.52a472.16 472.16 0 0 1 48 12.32c-5.12 24.96-8.48 51.52-10.56 78.4z m204.48-22.24l-24.16-14.56c-8.16-4.64-16-9.28-24.64-13.6 14.56-6.4 28.8-12.32 42.4-17.28 2.56 14.56 4.8 29.76 6.4 45.6zM520.48 139.52c26.56 0 55.04 49.44 72.64 128a772.8 772.8 0 0 0-72.48 30.72A743.68 743.68 0 0 0 448 267.2c17.44-78.4 45.92-127.68 72.48-127.68z m-78.88 160c14.08 5.12 28.16 10.88 42.72 17.28-8.48 4.48-16 9.12-24.8 13.76s-16 9.6-24.32 14.56c1.76-16.48 4-31.52 6.4-46.08z m-6.4 227.84c8 4.96 16 9.76 24.32 14.56s16 9.12 24.8 13.6c-14.72 6.4-28.8 12.16-42.72 17.28-2.4-15.04-4.64-30.08-6.4-45.92z m85.28 205.12c-26.56 0-55.04-49.44-72.8-128a777.92 777.92 0 0 0 72.8-30.72 775.36 775.36 0 0 0 72.64 30.72c-17.12 78.08-46.08 127.52-72.64 127.52z m78.72-160q-20.64-7.68-42.72-17.28c8.48-4.48 16-8.96 24.96-13.6l24.16-14.56c-1.6 15.68-3.84 30.72-6.4 45.28z m9.6-85.6c-13.76 9.12-28.16 18.24-43.36 26.88s-30.24 16-44.96 24.16c-14.88-7.36-29.76-16-44.96-24.16S446.08 496 432 486.88c-0.96-16-1.44-33.6-1.44-51.2s0-34.4 1.44-51.04c14.08-9.12 28.48-18.08 43.52-26.72s30.08-16.8 44.96-24.32c14.88 7.52 29.92 16 44.96 24.32s29.6 17.76 43.36 26.88c0.96 16 1.6 33.44 1.6 50.88s-0.64 34.56-1.6 51.04z m168.16 97.12c-13.28 23.04-70.24 23.04-147.04-0.96 4.48-24.96 7.68-51.36 9.76-78.24a787.68 787.68 0 0 0 62.88-48c59.2 55.2 87.68 104.16 74.4 127.04z m-135.04-176a732.8 732.8 0 0 1 36.16 28.16c-11.2 9.44-23.2 18.88-36.16 28.32v-28.32c0.48-9.76 0.32-19.2 0-28.64z m60.64 6.88a787.68 787.68 0 0 0-62.88-48c-2.08-26.88-5.28-53.12-9.76-78.24a351.04 351.04 0 0 1 98.24-18.08c25.12 0 42.24 5.76 48.8 17.12 13.28 22.88-15.2 72.32-74.4 126.72z" fill="#3FA9F5" p-id="1815"></path><path d="M521.28 372.48a62.88 62.88 0 1 0 62.72 62.88 62.88 62.88 0 0 0-62.72-62.88z m0 93.6a30.88 30.88 0 1 1 30.72-30.72 30.72 30.72 0 0 1-30.72 30.72z" fill="#3FA9F5" p-id="1816"></path></svg>