<svg t="1687763533128" class="icon" viewBox="0 0 1024 1024" version="1.1" xmlns="http://www.w3.org/2000/svg" p-id="3291" width="200" height="200"><path d="M512.804571 73.142857a207.238095 207.238095 0 0 1 207.238096 207.238095l-0.024381 60.952381H828.952381a73.142857 73.142857 0 0 1 73.142857 73.142857v438.857143a73.142857 73.142857 0 0 1-73.142857 73.142857H195.047619a73.142857 73.142857 0 0 1-73.142857-73.142857V414.47619a73.142857 73.142857 0 0 1 73.142857-73.142857h110.494476v-60.952381a207.238095 207.238095 0 0 1 207.238095-207.238095z m42.764191 463.238095h-73.142857v195.047619h73.142857v-195.047619zM512.804571 146.285714a134.095238 134.095238 0 0 0-134.095238 134.095238V341.333333h268.190477v-60.952381a134.095238 134.095238 0 0 0-134.095239-134.095238z" p-id="3292"></path></svg>