<svg t="1688800459597" class="icon" viewBox="0 0 1024 1024" version="1.1" xmlns="http://www.w3.org/2000/svg" p-id="2677" width="200" height="200"><path d="M989.866667 170.666667H34.133333c-10.24 0-17.066667 6.826667-17.066666 17.066666v648.533334c0 10.24 6.826667 17.066667 17.066666 17.066666h955.733334c10.24 0 17.066667-6.826667 17.066666-17.066666v-648.533334c0-10.24-6.826667-17.066667-17.066666-17.066666zM358.4 648.533333v-136.533333h273.066667v136.533333h-273.066667z m273.066667 34.133334v136.533333h-273.066667v-136.533333h273.066667z m0-341.333334v136.533334h-273.066667v-136.533334h273.066667z m341.333333 0v136.533334h-307.2v-136.533334h307.2z m-648.533333 136.533334h-273.066667v-136.533334h273.066667v136.533334z m-273.066667 34.133333h273.066667v136.533333h-273.066667v-136.533333z m614.4 0h307.2v136.533333h-307.2v-136.533333z m307.2-307.2v102.4h-921.6V204.8h921.6z m-921.6 477.866667h273.066667v136.533333h-273.066667v-136.533333z m614.4 136.533333v-136.533333h307.2v136.533333h-307.2z" fill="" p-id="2678"></path></svg>